<svg width="20" height="21" viewBox="0 0 20 21" fill="none" xmlns="http://www.w3.org/2000/svg">
<path fill-rule="evenodd" clip-rule="evenodd" d="M1.05654 0.683387C1.57724 0.105538 2.42146 0.105538 2.94216 0.683387L9.99935 8.51516L17.0565 0.683387C17.5772 0.105538 18.4215 0.105538 18.9422 0.683387C19.4629 1.26124 19.4629 2.19812 18.9422 2.77597L11.885 10.6077L18.9422 18.4395C19.4629 19.0174 19.4629 19.9542 18.9422 20.5321C18.4215 21.1099 17.5772 21.1099 17.0565 20.5321L9.99935 12.7003L2.94216 20.5321C2.42146 21.1099 1.57724 21.1099 1.05654 20.5321C0.535841 19.9542 0.535841 19.0174 1.05654 18.4395L8.11373 10.6077L1.05654 2.77597C0.535841 2.19812 0.535841 1.26124 1.05654 0.683387Z" fill="#3F3F55"/>
</svg>
