<svg width="64" height="53" viewBox="0 0 64 53" fill="none" xmlns="http://www.w3.org/2000/svg">
<path d="M53.5 9.5L56 12V11.5H56.5H57L57.5 11L58 10.5V9.5V9V8H59L59.5 8.5L60 9L60.5 10L61 11V12V12.5L60.5 13.5L60 14L59.5 14.5L59 15L60 16L60.5 17L61 18L61.5 19V20L62 21L62.5 22L63 23V24V25V26V27V28V29L62.5 30V31V32L62 33V34L61.5 35L61 36L60 37.5L59.5 38L59 39L58 40L57 41L56 42L55 43L54.5 43.5L53.5 44.5L53 45V46V47V48V49V50.5L52.5 51.5L51.5 52L51 52.5H50H49H48H47H46H45H44H43L42.5 52L42 51L41 50V49.5H40H39H38H37H36H34H33V50V51L32.5 51.5L32 52L31 52.5H24L23 52L22 51.5L21.5 50L21 49V48L20.5 46H20L18.5 45L17 44L16 43L15 42L14 41L13 40L12 39L11.5 38H10H9.5L7.5 37.5L6 37L5 36V35L5.5 34.5L6 33.5V33V32L5.5 31.5L4.5 31L2.5 30L1.5 29L1 28V26V24L1.5 22L2 21L3 19.5L4 18.5L5 17.5H5.5H6.5L8 18L10 19L11 17L11.5 15.5L12.5 14.5L13.5 13L15 12L16 11L17 10L18.5 9V8L17.5 7L17 6L16.5 5L15.5 4L14.5 3L15 1.5H15.5L17 1H19H20.5H21.5L23 1.5L25 2.5L26 3L27 4L28 5L31 4.5L35 4H37L41.5 4.5L45.5 5.5L49.5 7.5L53.5 9.5Z" fill="#DA0175" stroke="#DA0175"/>
<rect x="20" y="13" width="29" height="28" rx="10" fill="#FDFDFD" stroke="#FDFDFD" stroke-width="2"/>
<path d="M34.3636 18H36.75L30.3864 37H28L34.3636 18Z" fill="#DA0175"/>
<path d="M39.6136 18H42L35.6364 37H33.25L39.6136 18Z" fill="#DA0175"/>
</svg>
